<svg width="512" height="512" viewBox="0 0 512 512" xmlns="http://www.w3.org/2000/svg" fill="none">
  <circle style="fill:#e05b49" cx="256" cy="256" r="256"/>
  <path style="fill:#fff" d="M128 64h192l64 64v320H128Z"/>
  <path style="fill:#e1e6e9" d="M320 128h64l-64-64z"/>
  <path style="fill:#ebf0f3" d="M384 128h-64l64 30zM164 278h192v5H150zm0 20h192v5H150zm0 20h192v5H150zm0 20h192v5H150zm0 20h192v5H150zm0 20h192v5H150zm0 20h192v5H150zm0 20h131.779v4.7h-128.79z"/>
  <path style="fill:#3a556a" d="m157.05 213.96-41.583 41.583c4.405 4.114 9.226 7.136 10.896 5.465l38.868-38.867z"/>
  <path style="fill:#64798a" d="m146.427 203.337-38.868 38.867c-1.99 1.99 2.663 8.441 7.907 13.339l41.583-41.583zm77.882-22.307v-40.1c0-.481-.081-.959-.243-1.413-1.333-3.745-4.559-4.197-4.559-4.197.413-2.096-.244-3.288-1.003-3.955-.613-.538-1.422-.811-2.245-.811h-13.936c-8.003 0-14.551 6.42-14.551 14.266v36.209"/>
  <path style="fill:#f6c358" d="M216.733 173.838a4.85 4.85 0 0 1-1.245-3.271v-.958c-.116.144-.221.308-.34.447-2.543 2.977-5.686 4.761-9.102 4.761-3.421 0-6.569-1.789-9.114-4.775-.119-.139-.224-.303-.34-.448v.972a4.85 4.85 0 0 1-1.245 3.271 8.7 8.7 0 0 1-1.462 1.273c.059.065.176.196.383.443.625.745 1.882 2.357 3.397 4.869a23.5 23.5 0 0 0 16.745 0c1.516-2.513 2.773-4.124 3.398-4.87.208-.247.324-.378.383-.443a8.7 8.7 0 0 1-1.458-1.271"/>
  <path style="fill:#fcd462" d="M206.046 175.047c3.416 0 6.559-1.784 9.102-4.761.119-.139.224-.303.34-.447 3.53-4.387 5.817-11.131 5.817-18.749-.406-3.082-3.245-4.97-3.245-4.97l-9.125-2.982c-1.161.948-2.667 1.534-3.926 1.888a13.5 13.5 0 0 1-3.658.497h-4.888c-5.374.497-5.678 5.567-5.678 5.567 0 7.609 2.282 14.347 5.806 18.735.116.144.221.309.34.448 2.547 2.984 5.694 4.774 9.115 4.774"/>
  <path style="fill:#44c4a1" d="M199.522 184.091c2.267 4.344 4.726 10.301 6.517 18.033 1.795-7.751 4.262-13.72 6.534-18.067a27.6 27.6 0 0 1-6.534.806 27.8 27.8 0 0 1-6.517-.772"/>
  <path style="fill:#31978c" d="M197.172 180.292a62 62 0 0 1 2.146 3.885c2.152.53 4.401.819 6.723.819a27.8 27.8 0 0 0 6.74-.854 61 61 0 0 1 2.128-3.85 24.9 24.9 0 0 1-8.868 1.634c-3.132 0-6.116-.588-8.869-1.634"/>
  <path style="fill:#3a556a" d="m193.395 175.552-5.283 2.797-6.977 3.694s-5.248 3.216-5.248 8.253v11.83h30.152v-.001"/>
  <path style="fill:#ebf0f3" d="M199.693 184.091a57 57 0 0 0-2.026-3.668c-1.515-2.512-2.772-4.124-3.397-4.869a17 17 0 0 0-.383-.443c-.019-.021-.491.441-.491.441l-2.451 2.857a1.474 1.474 0 0 0 .05 1.98l5.774 6.09-.965-.022c-1.315-.03-2.049 1.478-1.198 2.461l11.433 13.208v-.001c-1.743-7.732-4.138-13.69-6.346-18.034"/>
  <path style="fill:#3a556a" d="M206.039 202.127h30.153v-11.83c0-5.038-5.248-8.253-5.248-8.253l-6.977-3.694-5.283-2.797"/>
  <path style="fill:#ebf0f3" d="m216.275 186.456-.965.022 5.774-6.09a1.473 1.473 0 0 0 .05-1.98l-2.451-2.857s-.471-.462-.491-.441c-.059.065-.176.195-.383.443-.625.745-1.882 2.357-3.398 4.87a58 58 0 0 0-2.009 3.635c-2.213 4.347-4.615 10.316-6.364 18.067v.002l11.434-13.209c.852-.983.118-2.491-1.197-2.462"/>
  <path style="fill:#fcd462" d="M242.003 198.491c19.862-19.862 19.861-52.064 0-71.926s-52.064-19.862-71.926 0c-18.38 18.38-19.715 47.311-4.076 67.268l-6.645 6.645c-3.23-2.484-6.164-3.905-7.323-2.745l-5.606 5.606 18.804 18.804 5.605-5.606c1.159-1.159-.262-4.094-2.746-7.324l6.645-6.645c19.957 15.638 48.887 14.303 67.268-4.077m-63.251-8.676c-15.047-15.047-15.048-39.529-.001-54.575 15.047-15.047 39.531-15.048 54.578-.001s15.046 39.531-.001 54.578c-15.048 15.046-39.53 15.045-54.576-.002"/>
</svg>
